HIERARCHY
ROOT Hips
{
	OFFSET 0.000000 0.000000 0.000000 
	CHANNELS 6 Xposition Yposition Zposition Zrotation Yrotation Xrotation
	JOINT LeftUpLeg
	{
		OFFSET 1.363060 -1.794630 0.839290 
		CHANNELS 3 Zrotation Yrotation Xrotation
		JOINT LeftLeg
		{
			OFFSET 2.448110 -6.726130 0.000000 
			CHANNELS 3 Zrotation Yrotation Xrotation
			JOINT LeftFoot
			{
				OFFSET 2.562200 -7.039590 0.000000 
				CHANNELS 3 Zrotation Yrotation Xrotation
				JOINT LeftToeBase
				{
					OFFSET 0.157640 -0.433110 2.322550 
					CHANNELS 3 Zrotation Yrotation Xrotation
					End Site
					{
						OFFSET 0.000000 0.000000 0.000000 
					}
				}
			}
		}
	}
	JOINT RightUpLeg
	{
		OFFSET -1.305520 -1.794630 0.839290 
		CHANNELS 3 Zrotation Yrotation Xrotation
		JOINT RightLeg
		{
			OFFSET -2.542530 -6.985550 0.000000 
			CHANNELS 3 Zrotation Yrotation Xrotation
			JOINT RightFoot
			{
				OFFSET -2.568260 -7.056230 0.000000 
				CHANNELS 3 Zrotation Yrotation Xrotation
				JOINT RightToeBase
				{
					OFFSET -0.164730 -0.452590 2.363150 
					CHANNELS 3 Zrotation Yrotation Xrotation
					End Site
					{
						OFFSET 0.000000 0.000000 0.000000 
					}
				}
			}
		}
	}
	JOINT Spine
	{
		OFFSET 0.028270 2.035590 -0.193380 
		CHANNELS 3 Zrotation Yrotation Xrotation
		JOINT Spine1
		{
			OFFSET 0.056720 2.048850 -0.042750 
			CHANNELS 3 Zrotation Yrotation Xrotation
			JOINT Neck1
			{
				OFFSET -0.054170 1.746240 0.172020 
				CHANNELS 3 Zrotation Yrotation Xrotation
				JOINT Head
				{
					OFFSET 0.104070 1.761360 -0.123970 
					CHANNELS 3 Zrotation Yrotation Xrotation
					End Site
					{
						OFFSET 0.000000 0.000000 0.000000 
					}
				}
			}
			JOINT LeftArm
			{
				OFFSET 3.362410 1.200890 -0.311210 
				CHANNELS 3 Zrotation Yrotation Xrotation
				JOINT LeftForeArm
				{
					OFFSET 4.983000 -0.000000 -0.000000 
					CHANNELS 3 Zrotation Yrotation Xrotation
					JOINT LeftHand
					{
						OFFSET 3.483560 -0.000000 -0.000000 
						CHANNELS 3 Zrotation Yrotation Xrotation
						JOINT LeftHandIndex1
						{
							OFFSET 0.715260 -0.000000 -0.000000 
							CHANNELS 3 Zrotation Yrotation Xrotation
							End Site
							{
								OFFSET 0.000000 0.000000 0.000000 
							}
						}
					}
				}
			}
			JOINT RightArm
			{
				OFFSET -3.136600 1.374050 -0.404650 
				CHANNELS 3 Zrotation Yrotation Xrotation
				JOINT RightForeArm
				{
					OFFSET -5.241900 -0.000000 -0.000000 
					CHANNELS 3 Zrotation Yrotation Xrotation
					JOINT RightHand
					{
						OFFSET -3.444170 -0.000000 -0.000000 
						CHANNELS 3 Zrotation Yrotation Xrotation
						JOINT RightHandIndex1
						{
							OFFSET -0.622530 -0.000000 -0.000000 
							CHANNELS 3 Zrotation Yrotation Xrotation
							End Site
							{
								OFFSET 0.000000 0.000000 0.000000 
							}
						}
					}
				}
			}
		}
	}
}
MOTION
Frames: 13
Frame Time: 0.041667
-0.367652 18.224578 0.819482 -4.636644 -2.382599 14.461792 -9.678241 -16.202825 -16.436923 -0.659756 4.776968 17.989320 -3.786611 13.876865 0.426918 0.904000 -6.059200 -16.956200 23.929688 15.754353 -15.286428 0.893577 -3.438249 16.274008 2.182184 -10.858359 -4.962842 -0.021300 0.943100 -2.592300 15.233204 0.446225 2.367872 -0.420462 0.787662 -7.982196 -8.910382 -2.305087 9.453077 -3.472500 -1.344700 2.972400 -71.728105 9.289097 43.198385 19.888720 -27.018168 -3.990308 0.146026 0.921781 12.137761 -7.125000 0.000000 0.000000 72.759496 -13.467168 16.706544 -29.393337 34.184356 -7.054748 0.107214 1.248405 31.314869 7.125000 0.000000 0.000000 
-0.360821 18.225884 0.811948 -4.694305 -2.417848 14.593725 -9.632797 -16.314257 -16.587391 -0.644131 4.817765 18.092433 -3.799154 13.922940 0.282190 0.872300 -5.954700 -16.653100 23.955031 15.749538 -15.401451 0.906689 -3.405520 16.156360 2.225962 -11.015151 -4.656005 -0.059100 1.568700 -4.315200 15.374773 0.445724 2.301396 -0.489388 0.776298 -7.910152 -8.922011 -2.324638 9.278897 -3.471800 -1.354800 2.932000 -71.747661 9.267184 43.644759 20.072472 -27.283648 -4.079902 0.163937 0.914254 12.355365 -7.125000 0.000000 0.000000 72.715529 -13.417898 16.703283 -29.302886 34.083277 -7.003856 0.085186 1.245730 30.935030 7.125000 0.000000 0.000000 
-0.353287 18.225984 0.803510 -4.828162 -2.460798 14.671098 -9.504638 -16.385434 -16.609438 -0.653916 4.806604 18.035234 -3.827454 14.012777 0.239946 0.834600 -5.827800 -16.285500 24.058755 15.777789 -15.482586 0.903591 -3.414706 16.173409 2.218204 -10.992905 -4.648262 -0.058100 1.555000 -4.277400 15.570997 0.493982 2.040431 -0.604162 0.765672 -7.954514 -8.971107 -2.346244 9.337540 -3.486100 -1.366800 2.937100 -71.745824 9.398764 44.105730 20.300877 -27.617839 -4.192622 0.176786 0.891277 12.517763 -7.125000 0.000000 0.000000 72.683139 -13.545639 16.788686 -29.297020 34.063394 -6.991338 0.059904 1.226643 30.524093 7.125000 0.000000 0.000000 
-0.345251 18.226888 0.798086 -4.709289 -2.577888 14.650392 -9.660539 -16.438854 -16.529252 -0.657779 4.787479 18.011766 -3.875961 14.170930 0.189480 0.853200 -5.890900 -16.468300 23.878796 15.811722 -15.516947 0.905325 -3.424083 16.176280 2.202493 -10.922089 -4.690412 -0.041600 1.316500 -3.620100 15.470402 0.485787 2.058675 -0.578274 0.766409 -7.999235 -8.983081 -2.345595 9.301402 -3.487900 -1.366400 2.925800 -71.723821 9.552956 44.511320 20.641842 -28.087754 -4.354190 0.181103 0.884296 12.558578 -7.125000 0.000000 0.000000 72.646230 -13.560464 16.864125 -29.247716 34.007884 -6.960806 0.042977 1.212512 30.132521 7.125000 0.000000 0.000000 
-0.338923 18.229600 0.793867 -4.503605 -2.693973 14.675084 -9.888578 -16.512500 -16.473364 -0.662024 4.766348 17.991208 -3.911227 14.290773 0.131476 0.863600 -5.925900 -16.569400 23.602125 15.870539 -15.578916 0.911434 -3.428605 16.148316 2.197602 -10.887604 -4.665394 -0.032000 1.155600 -3.177000 15.242854 0.488815 2.016353 -0.500143 0.773539 -8.004920 -8.962329 -2.346107 9.284047 -3.481700 -1.364800 2.916100 -71.663717 9.730200 44.953201 21.021880 -28.599880 -4.535926 0.188345 0.893440 12.580503 -7.125000 0.000000 0.000000 72.693247 -13.556955 16.704272 -29.165875 33.925232 -6.919055 0.036571 1.211996 29.971585 7.125000 0.000000 0.000000 
-0.333699 18.230404 0.788342 -4.493656 -2.745414 14.693718 -9.914870 -16.556201 -16.440214 -0.667882 4.752125 17.954258 -3.936806 14.374958 0.124044 0.859400 -5.911600 -16.528100 23.561628 15.883178 -15.599075 0.914417 -3.424596 16.120824 2.206958 -10.917580 -4.569444 -0.038600 1.267900 -3.486200 15.298583 0.501144 1.875456 -0.520154 0.767207 -8.040175 -8.899886 -2.355715 9.391691 -3.461300 -1.368200 2.934000 -71.657438 9.936168 45.343475 21.359880 -29.059819 -4.702742 0.195056 0.892779 12.737802 -7.125000 0.000000 0.000000 72.731003 -13.610266 16.506022 -29.092090 33.850957 -6.882672 0.038283 1.217522 29.801344 7.125000 0.000000 0.000000 
-0.328275 18.230303 0.784223 -4.620513 -2.803187 14.702502 -9.802056 -16.609190 -16.455388 -0.666581 4.757149 17.957117 -3.960439 14.445408 0.071896 0.871400 -5.951700 -16.644400 23.661763 15.908999 -15.572162 0.922237 -3.391927 16.049523 2.198892 -10.868991 -4.510422 -0.039900 1.288800 -3.543900 15.468252 0.490593 2.083820 -0.626651 0.769820 -7.977628 -8.835505 -2.358739 9.300171 -3.441400 -1.369500 2.921500 -71.647691 9.939018 45.768088 21.645157 -29.444219 -4.846061 0.205169 0.876256 12.803840 -7.125000 0.000000 0.000000 72.764255 -13.531049 16.333332 -29.050063 33.799774 -6.855859 0.040008 1.211862 29.587852 7.125000 0.000000 0.000000 
-0.322248 18.230002 0.778698 -4.771152 -2.879539 14.742830 -9.661562 -16.664923 -16.513294 -0.661986 4.772747 17.980797 -3.999272 14.566799 -0.016628 0.884300 -5.994600 -16.768800 23.777359 15.976641 -15.571199 0.932983 -3.350892 15.954606 2.196356 -10.843404 -4.427514 -0.042100 1.324700 -3.642600 15.607338 0.486422 2.334248 -0.732425 0.778144 -7.878161 -8.853910 -2.352900 9.124746 -3.453300 -1.366800 2.889700 -71.591188 9.901428 46.277129 21.938949 -29.832517 -4.995365 0.231664 0.840028 12.671845 -7.125000 0.000000 0.000000 72.848479 -13.381455 16.079880 -28.968341 33.709494 -6.809058 0.039355 1.205600 29.512854 7.125000 0.000000 0.000000 
-0.317627 18.231107 0.771968 -4.865946 -2.939302 14.813767 -9.566891 -16.737535 -16.565524 -0.660082 4.784876 17.997109 -4.026159 14.653117 -0.112597 0.853000 -5.890100 -16.465900 23.836152 16.032650 -15.594016 0.945849 -3.318284 15.861297 2.199847 -10.853896 -4.366642 -0.049100 1.430100 -3.932900 15.753215 0.520662 2.215996 -0.791599 0.780424 -7.843900 -8.875743 -2.346462 8.972429 -3.459700 -1.360800 2.839800 -71.593585 10.019723 46.650424 22.244713 -30.233169 -5.152401 0.247630 0.812072 12.532032 -7.125000 0.000000 0.000000 72.932143 -13.346028 15.828953 -28.849865 33.582849 -6.745197 0.036407 1.199138 29.519445 7.125000 0.000000 0.000000 
-0.313207 18.233518 0.763832 -4.805568 -3.000413 14.853894 -9.638054 -16.795926 -16.549913 -0.667375 4.768193 17.965061 -4.041501 14.702245 -0.188646 0.802600 -5.717800 -15.967700 23.731653 16.063195 -15.665910 0.950002 -3.321586 15.836307 2.209226 -10.890776 -4.291198 -0.054400 1.505100 -4.139700 15.796054 0.544447 2.001478 -0.753784 0.782109 -7.884062 -8.577834 -2.340307 8.517314 -3.771700 -1.324200 3.019800 -71.615739 10.188499 47.010510 22.599413 -30.694619 -5.336923 0.250702 0.822227 12.201866 -7.125000 0.000000 0.000000 72.958395 -13.296014 15.671677 -28.649415 33.384213 -6.645198 0.036499 1.195184 29.478479 7.125000 0.000000 0.000000 
-0.307180 18.235125 0.759311 -4.730848 -3.078362 14.853852 -9.730871 -16.855006 -16.473669 -0.681086 4.733502 17.895941 -4.059817 14.755208 -0.279120 0.749800 -5.530900 -15.429200 23.623374 16.041553 -15.746498 0.942793 -3.344210 15.871771 2.214141 -10.896084 -4.163214 -0.075500 1.772700 -4.878000 15.765930 0.532074 2.063093 -0.712236 0.785816 -7.886077 -8.606914 -2.325777 8.477452 -3.781700 -1.317200 3.010800 -71.628249 10.241435 47.327196 22.924645 -31.110366 -5.507066 0.256299 0.827772 11.974267 -7.125000 0.000000 0.000000 72.977439 -13.200570 15.547941 -28.488933 33.218883 -6.562187 0.029729 1.185965 29.414444 7.125000 0.000000 0.000000 
-0.302258 18.236531 0.755595 -4.582841 -3.153288 14.874460 -9.892841 -16.899410 -16.401197 -0.699345 4.683667 17.786542 -4.089066 14.849042 -0.278428 0.767500 -5.594300 -15.611800 23.421178 16.073327 -15.852289 0.933824 -3.382083 15.939825 2.201982 -10.841040 -4.163903 -0.078300 1.805400 -4.968100 15.698254 0.510279 2.081922 -0.622838 0.786313 -7.859530 -8.615606 -2.298229 8.392079 -3.777100 -1.302500 2.981800 -71.679898 10.302061 47.564910 23.206044 -31.460936 -5.655534 0.260774 0.812907 11.811653 -7.125000 0.000000 0.000000 73.026172 -13.118140 15.304822 -28.337417 33.064506 -6.487423 0.026289 1.186909 29.491710 7.125000 0.000000 0.000000 
-0.298340 18.237737 0.749367 -4.500212 -3.213936 14.901582 -9.985108 -16.928453 -16.359950 -0.716975 4.634763 17.657172 -4.138478 15.012455 -0.164722 0.818300 -5.772000 -16.124300 23.279207 16.179832 -15.928168 0.928476 -3.407974 15.983682 2.206962 -10.868973 -4.179043 -0.073500 1.749100 -4.812800 15.698134 0.496279 2.108888 -0.566295 0.788240 -7.855459 -8.600829 -2.273384 8.437306 -3.770100 -1.290200 2.997300 -71.759806 10.370600 47.716244 23.529522 -31.864077 -5.827498 0.253601 0.803990 11.596742 -7.125000 0.000000 0.000000 73.105233 -13.002232 15.008561 -28.168720 32.895812 -6.405019 0.026586 1.186175 29.630915 7.125000 0.000000 0.000000 
